# xmcd
# Track frame offsets:
# 150
# 12880
# 33190
# 45211
# 62517
# 88754
# 105046
# 118856
# 144648
# 157918
#
# Disc length: 2519 seconds
# Revision: 0
# Processed by: cddbd v1.4PL0 Copyright (c) Steve Scherf et al.
# Submitted via: VisiTrax 2.9.5.181 - For more info visit www.synapsa.com
#
DISCID=6b09d50a
DTITLE=Red´n Blue - Have to go on
DYEAR=2002
DGENRE=Blues
TTITLE0=What you´ve done In me
TTITLE1=Mean old world
TTITLE2=Reconsider baby
TTITLE3=Sweet home Chicago
TTITLE4=Reservation Blues
TTITLE5=My babies eyes
TTITLE6=Get down woman
TTITLE7=Stones in my passway
TTITLE8=Don´t do it
TTITLE9=Have to go on
EXTD=
EXTT0=
EXTT1=
EXTT2=
EXTT3=
EXTT4=
EXTT5=
EXTT6=
EXTT7=
EXTT8=
EXTT9=
PLAYORDER=
